<?xml version="1.0" encoding="utf-8"?>
<!-- Generator: Adobe Illustrator 27.0.0, SVG Export Plug-In . SVG Version: 6.00 Build 0)  -->
<svg version="1.1" id="Layer_1" xmlns="http://www.w3.org/2000/svg" xmlns:xlink="http://www.w3.org/1999/xlink" x="0px" y="0px"
	 viewBox="0 0 750 160" style="enable-background:new 0 0 750 160;" xml:space="preserve">
<style type="text/css">
	.st0{fill:#B45D69;}
	.st1{fill:#763E4A;}
	.st2{fill:#572E3A;}
	.st3{fill:#954E5A;}
	.st4{fill:#D36D78;}
	.st5{fill:#D36C78;}
</style>
<g>
	<path class="st0" d="M243.5,5.2c16.6,0.5,30.4,5.8,42.9,15c1.6,1.2,2,2.2,0.9,4c-2.2,3.6-4.3,7.2-6.3,10.9
		c-0.9,1.7-1.6,1.3-2.9,0.3c-16.6-13.1-35.2-16.8-55.4-11.2c-14,3.9-20.4,20.4-12.9,32.3c3.7,6,10,8.2,16.2,10.1
		c13.2,4.2,27,6.2,40.1,10.9c5.9,2.1,11.5,4.7,16.4,8.6c10.5,8.3,13.8,19.6,12.4,32.4c-2.1,18.9-13.8,29.7-31.3,33.8
		c-28.7,6.6-55.5,1.6-79.4-16.5c-1.5-1.1-1.8-2-0.9-3.7c2.2-3.8,4.3-7.6,6.4-11.5c0.8-1.5,1.5-1.7,2.9-0.5
		c17.1,14.7,37,19.7,59,17.5c4.8-0.5,9.4-1.8,13.7-4.2c12.3-7.1,13.5-24.3,2.3-33.1c-5.1-4-11.1-5.9-17.1-7.8
		c-11.9-3.9-24.2-5.9-36-10.2c-5.5-2-11-4.3-15.6-8c-9.2-7.4-12-17.4-11.2-28.7c1.6-21.8,16.1-34.7,37.3-38.8
		c3.2-0.6,6.5-1.3,9.8-1.2C238.2,5.3,241.3,4.8,243.5,5.2z"/>
	<path class="st1" d="M459.2,118.5c0-10.1,0-20.2,0-30.3c0-4.3,0-4.4,4.2-4.4c18.7,0,37.4-0.1,56.1,0c10.7,0.1,18.1-4.9,22.6-14.4
		c6.9-14.2,4.1-31-6.7-40.5c-4.8-4.2-10.5-6.3-16.7-6.3c-12.5-0.1-25,0-37.5-0.1c-2.7,0-3.5,1-3.4,3.6c0.1,11.7,0,23.4,0.1,35.1
		c0,3-0.9,4-3.8,3.9c-3.9-0.2-7.9-0.1-11.9,0c-2.2,0-3.1-0.9-3-3.1c0-17.7,0-35.4,0-53.2c0-2,0.7-2.9,2.8-2.9
		c20.4,0.1,40.8-0.4,61.2,0.3c13.8,0.5,24.7,7.8,32.5,19.3c14,20.6,11.9,45.2-5.3,63.1c-8.2,8.4-18.5,12-30.1,12
		c-12.8,0-25.6,0.1-38.5-0.1c-3.2,0-3.9,1-3.9,4c0.1,15,0,30.1,0.1,45.1c0,3.2-1,4.1-4,3.9c-3.6-0.2-7.3-0.2-10.9,0
		c-2.9,0.2-3.9-0.9-3.9-3.8C459.3,139.3,459.2,128.9,459.2,118.5z"/>
	<path class="st2" d="M681,95.5c4.6,0,9.2,0,13.8,0c4.5,0,4.6-0.1,3-4.2c-5.1-13-10.1-26-15.3-38.9c-1.2-3-1.4-5.6-0.1-8.6
		c1.9-4.3,3.3-8.8,5-13.3c0.4-1,0.3-2.5,1.5-2.6c1.2-0.1,1.3,1.5,1.7,2.4c7.5,18.4,15,36.7,22.5,55.1c8.7,21.3,17.3,42.5,26,63.8
		c1.6,4,1.5,4.2-2.7,4.2c-4.1,0-8.1-0.1-12.2,0c-2.4,0.1-3.6-0.9-4.5-3.1c-4.8-12.2-9.8-24.3-14.5-36.5c-1.1-2.8-2.5-3.7-5.4-3.7
		c-12.5,0.1-25,0.1-37.5,0.1c-5.2,0-5.2,0-3.3-5c0.5-1.4,1.1-2.8,1.6-4.2c2.1-5.6,2.1-5.6,7.9-5.6C672.7,95.5,676.8,95.5,681,95.5z"
		/>
	<path class="st3" d="M381.2,80.1c0,23.2-0.1,46.4,0.1,69.6c0,3.1-0.8,4.1-3.9,3.9c-3.8-0.3-7.7-0.2-11.5,0
		c-2.4,0.1-3.3-0.4-3.3-3.2c0.1-46.2,0.1-92.3,0.1-138.5c0-5.9,0-5.9,5.8-5.9c3.3,0,6.6,0.2,9.9,0c2.7-0.2,2.9,1.2,2.9,3.3
		c0,14.6,0,29.2,0,43.8C381.2,62,381.2,71.1,381.2,80.1z"/>
	<path class="st2" d="M614.7,153.5c-1.9,0-3.8,0-5.8,0c-3.6,0-3.8-0.3-2.5-3.6c3-7.5,6.1-14.9,9.1-22.3
		c15.9-38.9,31.8-77.9,47.6-116.8c1.4-3.5,3.1-5.3,7-4.7c2.4,0.3,4.9,0.2,7.4,0c2.7-0.1,3.1,0.9,2.2,3.3c-5.1,13.3-10,26.7-15.1,40
		c-11.3,29.1-22.6,58.2-34,87.3c-1.8,4.6-3.7,9.2-5.3,13.8c-0.9,2.4-2.2,3.4-4.8,3.2C618.6,153.4,616.7,153.5,614.7,153.5z"/>
	<path class="st4" d="M79.2,97.5c0,17.6,0,35.2,0.1,52.8c0,2.5-0.5,3.4-3.2,3.2c-4.2-0.2-8.3-0.2-12.5,0c-2.2,0.1-3-0.5-2.9-2.9
		c0.2-4.2,0-8.4,0-12.6c0-31.1,0-62.3-0.1-93.4c0-2.7,0.7-3.5,3.4-3.4c4,0.2,8.1,0.2,12.2,0c2.4-0.1,3.1,0.5,3.1,3
		C79.1,62,79.2,79.8,79.2,97.5z"/>
	<path class="st5" d="M69.9,22.6c-18.8,0-37.6-0.1-56.4,0.1c-2.9,0-3.7-0.8-3.5-3.6c0.2-3.2,0.3-6.5,0-9.7c-0.3-3,1-3.5,3.6-3.4
		C32,6,50.4,6,68.8,6c19.2,0,38.5,0.1,57.7-0.1c3,0,3.6,0.9,3.4,3.6c-0.2,3.3-0.2,6.7,0,10c0.2,2.7-0.9,3.1-3.3,3.1
		C107.7,22.5,88.8,22.6,69.9,22.6z"/>
</g>
</svg>
